<?xml version="1.0" standalone="no"?>
<!DOCTYPE svg PUBLIC "-//W3C//DTD SVG 20010904//EN"
 "http://www.w3.org/TR/2001/REC-SVG-20010904/DTD/svg10.dtd">
<svg version="1.0" xmlns="http://www.w3.org/2000/svg"
 width="225.000000pt" height="225.000000pt" viewBox="0 0 225.000000 225.000000"
 preserveAspectRatio="xMidYMid meet">
<metadata>
Created by potrace 1.11, written by Peter Selinger 2001-2013
</metadata>
<g transform="translate(0.000000,225.000000) scale(0.100000,-0.100000)"
fill="#000000" stroke="none">
<path d="M431 1251 c-17 -21 -31 -42 -31 -45 0 -3 81 -6 180 -6 99 0 180 -4
180 -9 0 -4 -9 -20 -20 -34 -11 -14 -20 -28 -20 -31 0 -3 38 -6 85 -6 l85 0
27 41 c33 50 25 85 -27 111 -30 15 -64 18 -232 18 l-196 0 -31 -39z"/>
<path d="M1035 1238 c-21 -29 -49 -68 -63 -85 l-24 -33 230 0 230 0 54 73 c30
39 58 78 62 85 5 9 -14 12 -86 12 l-93 0 -35 -50 c-33 -46 -38 -50 -78 -50
l-44 0 37 50 37 50 -94 0 -94 0 -39 -52z"/>
<path d="M1532 1205 l-62 -85 99 0 100 0 61 79 c33 44 60 82 60 85 0 3 -44 6
-97 6 l-98 -1 -63 -84z"/>
<path d="M442 1103 c-32 -43 -62 -84 -66 -91 -7 -11 26 -13 180 -10 204 3 224
8 287 67 l28 26 -121 5 -122 5 21 27 c34 43 28 48 -64 48 l-84 0 -59 -77z"/>
<path d="M100 1090 c0 -6 55 -10 144 -10 86 0 147 4 151 10 4 6 -47 10 -144
10 -94 0 -151 -4 -151 -10z"/>
<path d="M923 1088 c-5 -7 -22 -30 -38 -50 l-27 -38 94 0 94 0 37 50 37 50
-94 0 c-63 0 -97 -4 -103 -12z"/>
<path d="M1172 1056 c-18 -24 -32 -47 -32 -51 0 -3 41 -4 91 -3 l91 3 35 48
35 47 -94 0 -95 0 -31 -44z"/>
<path d="M1435 1071 c-13 -27 -13 -31 0 -45 23 -23 65 -27 228 -24 l149 3 35
48 35 47 -216 0 -215 0 -16 -29z"/>
<path d="M1910 1090 c0 -6 47 -10 120 -10 73 0 120 4 120 10 0 6 -47 10 -120
10 -73 0 -120 -4 -120 -10z"/>
<path d="M100 1050 c0 -6 50 -10 129 -10 76 0 132 4 136 10 4 6 -42 10 -129
10 -84 0 -136 -4 -136 -10z"/>
<path d="M1880 1050 c0 -6 52 -10 135 -10 83 0 135 4 135 10 0 6 -52 10 -135
10 -83 0 -135 -4 -135 -10z"/>
<path d="M100 1010 c0 -6 45 -10 114 -10 66 0 117 4 121 10 4 6 -37 10 -114
10 -74 0 -121 -4 -121 -10z"/>
<path d="M1850 1010 c0 -6 57 -10 150 -10 93 0 150 4 150 10 0 6 -57 10 -150
10 -93 0 -150 -4 -150 -10z"/>
</g>
</svg>
