<?xml version="1.0" encoding="utf-8"?>
<!-- Generator: Adobe Illustrator 19.2.1, SVG Export Plug-In . SVG Version: 6.00 Build 0)  -->
<svg version="1.1" id="Ebene_1" xmlns="http://www.w3.org/2000/svg" xmlns:xlink="http://www.w3.org/1999/xlink" x="0px" y="0px"
	 viewBox="0 0 50 50" style="enable-background:new 0 0 50 50;" xml:space="preserve">
<style type="text/css">
	.st0{fill:#CE1820;}
</style>
<path class="st0" d="M25,10.3L25,10.3c-1.5,0-2.8-1.3-2.8-2.8V5.9c0-1.5,1.3-2.8,2.8-2.8h0c1.5,0,2.8,1.3,2.8,2.8v1.5
	C27.8,9,26.5,10.3,25,10.3z"/>
<path class="st0" d="M25,30.3l2.8,17.2h3.4l-1.9-22.1l0.7-7.5l1.5,11.8l2.3-0.2l-1.9-15.1c-0.1-1.2-1-2.1-2.2-2.4l-1.1-0.2
	c-2.9-0.6-4.3-0.6-7.2,0L20.3,12c-1.2,0.2-2,1.2-2.2,2.4l-1.9,15.1l2.3,0.2L20,17.9l0.7,7.5l-1.9,22.1h3.4L25,30.3z"/>
<g>
	<path class="st0" d="M15.5,13.5L15.5,13.5c-1.4,0-2.6-1.1-2.6-2.6V9.5C13,8.1,14.1,7,15.5,7h0c1.4,0,2.6,1.1,2.6,2.6v1.4
		C18.1,12.3,16.9,13.5,15.5,13.5z"/>
	<path class="st0" d="M18,46.8l1.4-16.2l0-0.1l-0.2,0l-3.9-0.3c0,0,1.9-15.6,1.9-15.6c-1.7-0.3-2.9-0.2-5,0.3l-1,0.2
		c-1.1,0.2-1.9,1.1-2,2.2L7.6,31l2.1,0.2L11,20.4l0.6,6.8L9.9,47H13l2.5-15.2L18,46.8"/>
</g>
<g>
	<path class="st0" d="M34.5,13.5L34.5,13.5c1.4,0,2.6-1.1,2.6-2.6V9.5c0-1.4-1.1-2.6-2.6-2.6h0C33.1,7,32,8.1,32,9.5v1.4
		C32,12.3,33.1,13.5,34.5,13.5z"/>
	<path class="st0" d="M32,46.8l-1.4-16.2l0-0.1l0.2,0l3.9-0.3c0,0-1.9-15.6-1.9-15.6c1.7-0.3,2.9-0.2,5,0.3l1,0.2
		c1.1,0.2,1.9,1.1,2,2.2L42.5,31l-2.1,0.2l-1.4-10.8l-0.6,6.8L40.2,47H37l-2.5-15.2L32,46.8"/>
</g>
<g>
	<path class="st0" d="M15.6,13.5L15.6,13.5c1.4,0,2.6-1.1,2.6-2.6V9.5C18.2,8.1,17,7,15.6,7h0c-1.4,0-2.6,1.1-2.6,2.6v1.4
		C13.1,12.3,14.2,13.5,15.6,13.5z"/>
</g>
<polygon class="st0" points="19.9,22.7 19.7,29.6 19.5,27.3 "/>
<polygon class="st0" points="30,22.7 30.3,29.6 30.4,27.3 "/>
</svg>
