<?xml version="1.0" encoding="utf-8"?>
<!-- Generator: Adobe Illustrator 21.0.0, SVG Export Plug-In . SVG Version: 6.00 Build 0)  -->
<svg version="1.1" id="Layer_1" xmlns="http://www.w3.org/2000/svg" xmlns:xlink="http://www.w3.org/1999/xlink" x="0px" y="0px"
	 viewBox="0 0 50 52" style="enable-background:new 0 0 50 52;" xml:space="preserve">
<style type="text/css">
	.st0{fill:#D31116;}
</style>
<g>
	<path class="st0" d="M27.8,44.6c0,0,0-0.3-0.1-0.5S27,43.7,27,43.7s-0.3-0.3-0.3-0.5c0.1-0.1,0.7-0.5,0.7-0.6
		c0.1-0.1,0.5-0.6,0.5-0.6l-0.4-0.9c0,0-0.2-0.6,0-1.1c0.2-0.4,0.3-0.3,0.6-0.3c0.2,0,0.7-0.4,0.7-0.5c0-0.1-0.7-0.6-0.8-0.6
		c-0.1,0-0.9-0.4-0.7-0.7c0.2-0.3,0.4-0.2,0.5-0.2c0.1,0-0.2-1-0.2-1.2c0-0.2,0.1-0.6,0.1-0.6l-0.5,0.1l-0.6-0.1l-0.2-0.4
		c0,0,0.3-0.6,0.2-0.7c-0.1-0.1-0.4,0-0.4,0l-0.7-0.3l-0.4-0.4l0.3-0.3l-0.1-0.5l-0.3-1l1-0.3l1-0.5c0,0-0.5-0.2-0.6-0.3
		s-0.4-0.1-0.4-0.1s-0.1-0.5-0.3-0.6c-0.1-0.1-0.7-0.1-0.7-0.1S25,30.1,25,30c-0.1-0.1-0.5-0.6-0.5-0.6l-0.9-0.2l-0.9-0.1
		c0,0-0.7-0.2-0.8-0.1c-0.1,0-0.7,0.2-0.7,0.2l-0.7-0.6c0,0,0.3-0.7,0.3-1c0-0.3-0.4-0.5-0.5-0.4s-0.2,0.1-0.3,0.4
		c-0.2,0.3-0.3,0.3-0.8,0.3c-0.5,0.1-0.3-0.6-0.3-0.6s-0.1-0.4-0.2-0.7c-0.2-0.3-0.7-0.2-1-0.3c-0.3-0.1-0.3-0.4-0.3-0.4
		s-0.1-0.3-0.2-0.8c0-0.5-0.4-0.4-0.9-1c-0.5-0.6,0,0,0.1-0.4c0.1-0.4,0.1-0.5-0.1-1c-0.2-0.5,0.4-1,0.4-1s-0.7-1-0.7-1.1
		c0-0.2-0.6-0.6-0.8-0.7c-0.3-0.2,0-0.7,0-0.7s-0.7-1.7-0.8-1.8c-0.1-0.1-0.1,0.3-0.5,0.7c-0.4,0.4-0.8,0-1.2-0.2
		c-0.4-0.1-0.6,0.2-1,0.3c-0.3,0.2-1.2,0.3-1.2,0.3s-0.8-0.1-0.9,0.1c-0.1,0.1-1,0.1-1,0.1s-0.8-0.3-0.9-0.5C7.6,18,7.9,18.1,8,18
		c0.2-0.1-0.2-0.5-0.1-0.9s0.5-0.6,0.5-0.6L8,15.3c-2,3.1-3.2,6.8-3.2,10.8c0,11.1,9,20.1,20.1,20.1c2.1,0,4.2-0.3,6.1-0.9
		L27.8,44.6z"/>
	<path class="st0" d="M9.8,14.2l0.8,0.4l0.3-0.5l0-0.6c0,0,0.5-0.1,0.7,0s0.9,0.4,0.9,0.4s0.9,0,1.1,0c0.2,0,1.2,0,1.2,0l0.8-0.6
		l0.5-0.4c0,0,0.8,0.4,0.9,0c0.1-0.5,0.1-0.5,0.1-0.5s0.2-0.4,0.3-0.4s0.4,0.1,0.8,0c0.4-0.1,0.4,0.3,0.4,0.5c0,0.2,0.2,0.5,0.5,0.5
		c0.3,0,1.1,0.1,1.2,0c0.2-0.1,0.7-0.1,0.7-0.1s1.4,0.3,1.6,0.1s0.6-0.4,0.5-0.6s0,0.1-0.1-0.3c0-0.4,0-0.5,0.2-0.5s0,0.5,0.2,0
		c0.1-0.5-0.3-0.6,0.1-0.7c0.4-0.1,0.8,0,0.9,0.1c0.1,0.1,0.3,0.7,0.3,0.7s0.3,0.5,0.5,0.2c0.2-0.3,0.2-0.8,0.2-0.8l1.3,0.5l0.5-0.3
		l0.9-0.4c0,0,0.4,0.3,0.6,0.2s0.7-0.6,0.7-0.6s0-0.4,0.6-0.4c0.6,0,1.3-0.1,1.1-0.4c-0.1-0.3-0.5-0.3-0.5-0.3l0.5-0.3l0.9,0.2
		c0,0,0.9,0.2,1.1,0.2c0.3-0.1,0.7,0.7,0.8,0.6S32.9,9,32.9,9l-0.1-0.5c0,0-1.3-0.4-1.8-0.3c-0.4,0.1-0.5,0.4-1,0.2
		c-0.5-0.2-0.7-0.5-0.8-0.7c0-0.1,0.1-0.6,0.3-1.1C28,6.2,26.5,6,24.9,6c-6.6,0-12.4,3.2-16.1,8.1L9.8,14.2z"/>
	<path class="st0" d="M41.9,15.3l-0.1,1l-1.2,0.4l-0.7-0.2l-1,0.1l-1.5,0.5l-0.5,0.6l-2.6-2.5l-1.7-2.5l-2.1-1.3l-1,0.6l1.3,1.1
		l0.8,0.8L31.4,15h-1l-0.8-1c0,0-1.2-0.3-1.3-0.5l-1.3,1l-0.3,1l-1.3,0.3l-0.7-0.7v1.2l0.6,0.5h0.8l0.9,0.3l0.7-1.3l0.6-0.8l1.7,1.1
		h1l1.3,0.6c0,0,0.7,1.5,0.9,1.7c0.3,0.2,1.9,0.7,1.9,0.7l0.3,1.2l-3.1,0.1c0,0,0.2,0.9-0.4,1.4c-0.6,0.5-1,0.5-1.3,0.8
		c-0.3,0.3-1.8,1.6-1.8,1.6s0,0.8-0.4,1c-0.4,0.3-1.9,1.1-1.9,1.1c-0.8-0.8-2.2-1.3-2.2-1.3s-0.2,0.3-0.3,0.8s-0.3,0.6-0.6,0.8
		c-0.3,0.3-0.7,0.7-0.3,0.8c0.4,0.1,1.3-0.4,1.3-0.4l0.3-0.6l0.5,0.8c0,0-0.3,0.6-0.1,0.8c0.2,0.3,1.2,0.5,1.2,0.5s0.6,0.1,0.7,0.3
		c0.1,0.3,1.5,0.7,1.9,0.5c0.3-0.2,0.9-0.4,1.4-0.5s2.2,0.3,2.2,0.3s0.3,0.8,0.5,0.9s1.2-0.1,1.4,0.1c0.3,0.2,0.8,1.3,0.8,1.3
		s1.2,0.6,1.3,0.8s1.6,1.3,1.6,1.3h1.4l-1,2.2l-0.8,0.8l-1,1.7l-1.3,0.6L35,38.1c0,0-1.1,0.6-0.9,0.9S34,40.3,34,40.3
		s-0.3,0.6-0.6,0.8c-0.3,0.3-2,1.6-2,1.6l-1-0.2l-0.7,1l0.3,0.6l-0.3,1.5c8.9-2.1,15.5-10,15.5-19.5C45,22.1,43.9,18.4,41.9,15.3z"
		/>
</g>
</svg>
